<?xml version="1.0" encoding="UTF-8"?>
<svg id="Capa_3" data-name="Capa 3" xmlns="http://www.w3.org/2000/svg" viewBox="0 0 2165.04 1120.62">
  <defs>
    <style>
      .cls-1 {
        fill: #bec3d0;
      }

      .cls-2 {
        fill: #06121e;
      }

      .cls-3 {
        fill: #3dc450;
      }

      .cls-4 {
        fill: #fff;
        opacity: 0;
      }

      .cls-5 {
        fill: #0f0f0f;
      }
    </style>
  </defs>
  <g id="Capa_1" data-name="Capa 1">
    <g>
      <rect class="cls-4" width="2165.04" height="1120.62"/>
      <g>
        <ellipse class="cls-3" cx="480.78" cy="560.84" rx="35.42" ry="35.25" transform="translate(-256.78 602.14) rotate(-52.6)"/>
        <path class="cls-3" d="M376.39,693.84l42.33-42.32c.42-.43,1.01-.68,1.62-.68,68.39.1,108.55.08,120.46-.05,4.5-.06,8.61-1.47,12.32-4.24,2.06-1.54,4.36-5.24,6.91-11.1,5.17-11.9,16.32-36.74,33.45-74.53.17-.39.57-.65,1-.65h47.1c.28,0,.51.24.5.52,0,.07-.01.13-.04.19-17.14,38.47-33.19,73.83-48.18,106.1-6.79,14.63-19.25,23.27-34.83,26.56-3.31.69-8.15,1.04-14.51,1.05-61.55.06-117.47.07-167.76.04-.29,0-.52-.24-.52-.53,0-.13.05-.26.15-.36Z"/>
        <path class="cls-5" d="M586.05,426.78l-42.33,42.32c-.42.43-1.01.68-1.62.68-68.39-.1-108.55-.08-120.46.05-4.5.06-8.61,1.47-12.32,4.24-2.06,1.54-4.36,5.24-6.91,11.1-5.17,11.9-16.32,36.74-33.45,74.53-.17.39-.57.65-1,.65h-47.1c-.28,0-.51-.24-.5-.52,0-.07.01-.13.04-.19,17.14-38.47,33.19-73.83,48.18-106.1,6.79-14.63,19.25-23.27,34.83-26.56,3.31-.69,8.15-1.04,14.51-1.05,61.55-.06,117.47-.07,167.76-.04.29,0,.52.24.52.53,0,.13-.05.26-.15.36Z"/>
      </g>
      <g>
        <path class="cls-5" d="M1235.07,500.58c0-.31.25-.55.55-.55,26.28-.01,54.59-.01,84.92,0,17.35,0,31.72,2.66,37.3,19.73,2.62,7.98,1.6,17.33,1.75,26.7.26,17.71-7.2,30.23-25.59,34.02-.4.09-.66.48-.57.89.02.11.07.22.15.31l29.72,39.19s.01.09-.03.12c-.01,0-.02,0-.03.01h-24.67c-.46,0-.88-.2-1.15-.55l-28.48-37.57c-.74-.95-1.88-1.51-3.09-1.51h-47.92c-.8,0-1.45.64-1.45,1.43h0v36.93c0,.71-.56,1.28-1.26,1.28h-19.27c-.48,0-.87-.4-.87-.89v-119.51ZM1256.47,521.82l.21,38.91c0,.55.45,1,1,1h0l66.42-.36c7.88-.04,14.25-5.69,14.22-12.62l-.09-15.8c-.03-6.94-6.45-12.53-14.34-12.5,0,0,0,0-.01,0l-66.42.36c-.55,0-1,.45-1,1h0Z"/>
        <path class="cls-5" d="M1461.34,500.11c20.29-.1,40.3-.09,60.01.02.83,0,1.51.68,1.51,1.51h0v17.52c0,.83-.68,1.51-1.51,1.51h-47.07c-1.01,0-1.83.82-1.83,1.83h0l-.23,97.01c0,.73-.53,1.35-1.26,1.47-.09.01-3.3.02-9.64.02s-9.56,0-9.64-.02c-.72-.11-1.25-.74-1.26-1.47l-.19-97.01c0-1.01-.82-1.83-1.83-1.83h0l-47.07-.02c-.83,0-1.51-.68-1.51-1.51v-17.52c0-.83.68-1.51,1.51-1.51,19.71-.11,39.72-.11,60.01,0Z"/>
        <path class="cls-3" d="M1688.23,589.3c0,17.67-14.33,32-32,32h-68.55c-17.67,0-32-14.32-32-32h0v-57.31c0-17.67,14.33-32,32-32h68.55c17.67,0,32,14.32,32,32h0v57.31ZM1665.66,535.18c-.01-7.9-6.43-14.29-14.33-14.28l-59.31.1c-7.9.01-14.29,6.43-14.28,14.33h0s.09,50.45.09,50.45c.01,7.9,6.43,14.29,14.33,14.28h0l59.31-.1c7.9-.01,14.29-6.43,14.28-14.33h0s-.09-50.45-.09-50.45Z"/>
        <path class="cls-3" d="M1839.42,519.69c0,.59-.48,1.06-1.06,1.06-27.65.14-55.2.18-82.66.11-4.03-.01-6.71,1.8-8.03,5.43-1.4,3.85-1.55,12.24-1.09,15.82.87,6.49,8.13,7.54,14.03,7.43,12.3-.26,29.87-.25,52.69.02,15.86.19,28.99,7.49,30.85,24.08.47,4.1.63,9.93.49,17.48-.26,13.56-4.83,22.12-15.99,27.97-2.98,1.58-8.42,2.36-16.31,2.34-28.38-.06-56.46-.11-84.22-.15-1.03,0-1.87-.84-1.87-1.87,0-.01,0-.03,0-.04l.21-17.58c.01-.91.75-1.64,1.66-1.64,51.36-.07,80.04-.18,86.05-.34,5.44-.14,8.42-2.88,8.96-8.22.57-5.51.57-10.32,0-14.45-.41-2.88-2.37-5.31-5.11-6.3-3.28-1.18-6.86-1.66-10.75-1.45-10.2.58-27.4.62-51.58.13-10.13-.19-20.78-2.32-26.12-10.86-6.05-9.69-4.77-21.12-4.81-34.06,0-1.2.19-2.39.55-3.53,4.46-13.88,13.86-20.88,28.21-21.01,26.34-.21,54.72-.21,85.15.02.54,0,.98.43.98.96,0,0,0,.01,0,.02l-.23,18.65Z"/>
        <path class="cls-5" d="M734.46,560.59c.01,10.74,0,16.9-.06,18.48-.23,7.24.48,12.03,2.11,14.37,3.14,4.51,7.22,6.77,12.26,6.77,26.01.03,51.88.05,77.59.06.71,0,1.28.57,1.28,1.28l-.23,18.35c-.01.61-.51,1.11-1.13,1.11-28.03-.13-48.79-.09-62.29.13-22.18.36-39.94.7-48.86-19.24-4.3-9.64-2.51-28.7-2.53-41.26-.02-12.58-1.85-31.63,2.45-41.3,8.86-19.95,26.61-19.65,48.79-19.35,13.5.18,34.26.18,62.29-.02.61,0,1.12.49,1.13,1.11l.28,18.35c0,.71-.57,1.28-1.28,1.28-25.72.07-51.58.16-77.59.26-5.04.01-9.12,2.28-12.24,6.79-1.62,2.36-2.31,7.15-2.06,14.39.06,1.56.09,7.71.11,18.46Z"/>
        <path class="cls-5" d="M1007.62,588.8c.03,17.72-14.31,32.11-32.02,32.14h0l-69.48.12c-17.72.03-32.11-14.31-32.14-32.02l-.1-56.71c-.03-17.72,14.31-32.11,32.02-32.14h0l69.48-.12c17.72-.03,32.11,14.31,32.14,32.02l.1,56.71ZM985.28,534.88c-.01-7.91-6.44-14.32-14.35-14.3h0l-60.8.11c-7.91.01-14.32,6.44-14.3,14.35h0l.09,50.71c.01,7.91,6.44,14.32,14.35,14.3h0l60.8-.11c7.91-.01,14.32-6.44,14.3-14.35h0l-.09-50.71Z"/>
        <path class="cls-5" d="M1054.95,571l-.04-2.17-.06-67.12c0-.87.71-1.58,1.58-1.58h18.8c.91,0,1.64.72,1.64,1.62h0c0,1.62-.04,27.26-.11,76.93-.04,15.31,3.96,21.25,19.01,21.18,18.73-.09,34.08-.08,46.05.02,14.35.15,20.24-4.51,20.24-18.52-.06-51.02-.08-77.53-.06-79.53,0-.94.77-1.7,1.72-1.7h18.82c.82,0,1.49.67,1.49,1.49h0c-.17,41.54-.18,67.67-.04,78.4.14,10.53-.89,18.05-3.11,22.57-7.66,15.63-20.8,19.05-38.6,18.5-7.71-.23-20.9-.17-39.6.17-22.5.4-40.06-1.62-46.54-24.03-2.09-7.22-1.23-17.84-1.19-26.23Z"/>
        <path class="cls-2" d="M1054.91,568.83l.04,2.17c.13-.79.11-1.52-.04-2.17Z"/>
      </g>
      <g>
        <path class="cls-1" d="M744.19,693.4c-3.35,0-6.46-.56-9.33-1.7-2.87-1.13-5.35-2.71-7.44-4.74-2.09-2.03-3.73-4.41-4.9-7.13-1.17-2.72-1.76-5.69-1.76-8.92s.59-6.2,1.76-8.92c1.17-2.72,2.8-5.1,4.9-7.13,2.09-2.03,4.56-3.61,7.41-4.74,2.85-1.13,5.97-1.7,9.36-1.7s6.45.56,9.29,1.66c2.85,1.11,5.32,2.68,7.41,4.71,2.09,2.03,3.72,4.42,4.87,7.16,1.15,2.74,1.73,5.73,1.73,8.95s-.58,6.26-1.73,8.98-2.77,5.1-4.87,7.13c-2.09,2.03-4.56,3.6-7.41,4.71-2.85,1.11-5.95,1.66-9.29,1.66ZM744.13,687.81c2.47,0,4.74-.42,6.81-1.26,2.07-.84,3.87-2.02,5.4-3.55s2.72-3.32,3.58-5.37c.86-2.05,1.29-4.29,1.29-6.72s-.43-4.66-1.29-6.69c-.86-2.03-2.05-3.82-3.58-5.37-1.53-1.55-3.33-2.74-5.4-3.58s-4.34-1.26-6.81-1.26-4.68.42-6.75,1.26-3.88,2.03-5.43,3.58c-1.55,1.55-2.75,3.34-3.61,5.37-.86,2.03-1.29,4.26-1.29,6.69s.43,4.67,1.29,6.72c.86,2.05,2.06,3.84,3.61,5.37s3.36,2.71,5.43,3.55c2.07.84,4.32,1.26,6.75,1.26Z"/>
        <path class="cls-1" d="M795.94,692.9v-43.96h17.14c3.85,0,7.14.61,9.86,1.82,2.72,1.21,4.81,2.97,6.28,5.28,1.46,2.3,2.2,5.05,2.2,8.23s-.73,5.91-2.2,8.2c-1.47,2.28-3.56,4.04-6.28,5.28-2.72,1.24-6.01,1.85-9.86,1.85h-13.69l2.83-2.95v16.26h-6.28ZM802.22,677.26l-2.83-3.14h13.5c4.02,0,7.06-.86,9.14-2.57,2.07-1.72,3.11-4.14,3.11-7.29s-1.04-5.57-3.11-7.28c-2.07-1.72-5.12-2.58-9.14-2.58h-13.5l2.83-3.14v26Z"/>
        <path class="cls-1" d="M866.4,687.43h25.62v5.46h-31.9v-43.96h31.02v5.46h-24.74v33.03ZM865.84,667.9h22.61v5.34h-22.61v-5.34Z"/>
        <path class="cls-1" d="M921.04,692.9v-43.96h17.14c3.85,0,7.14.61,9.86,1.82,2.72,1.21,4.81,2.97,6.28,5.28,1.46,2.3,2.2,5.05,2.2,8.23s-.73,5.91-2.2,8.2c-1.47,2.28-3.56,4.03-6.28,5.24-2.72,1.21-6.01,1.82-9.86,1.82h-13.69l2.83-2.89v16.26h-6.28ZM927.32,677.26l-2.83-3.08h13.5c4.02,0,7.06-.87,9.14-2.61,2.07-1.74,3.11-4.18,3.11-7.32s-1.04-5.57-3.11-7.28c-2.07-1.72-5.12-2.58-9.14-2.58h-13.5l2.83-3.14v26ZM950.43,692.9l-11.18-15.95h6.72l11.3,15.95h-6.84Z"/>
        <path class="cls-1" d="M978.87,692.9l19.91-43.96h6.22l19.97,43.96h-6.59l-17.77-40.44h2.51l-17.77,40.44h-6.47ZM987.35,681.91l1.7-5.02h24.74l1.82,5.02h-28.26Z"/>
        <path class="cls-1" d="M1059.07,692.9v-38.5h-15.07v-5.46h36.36v5.46h-15.07v38.5h-6.22Z"/>
        <path class="cls-1" d="M1112.32,687.43h25.62v5.46h-31.9v-43.96h31.02v5.46h-24.74v33.03ZM1111.76,667.9h22.61v5.34h-22.61v-5.34Z"/>
        <path class="cls-1" d="M1167.52,693.27c-1.17,0-2.18-.41-3.01-1.22-.84-.82-1.26-1.85-1.26-3.11s.42-2.28,1.26-3.08c.84-.79,1.84-1.19,3.01-1.19s2.1.4,2.92,1.19c.82.8,1.22,1.82,1.22,3.08s-.41,2.29-1.22,3.11-1.79,1.22-2.92,1.22Z"/>
        <path class="cls-1" d="M1255.44,693.4c-3.35,0-6.44-.55-9.26-1.66-2.83-1.11-5.28-2.68-7.35-4.71-2.07-2.03-3.7-4.41-4.87-7.13s-1.76-5.71-1.76-8.98.59-6.26,1.76-8.98c1.17-2.72,2.8-5.1,4.9-7.13,2.09-2.03,4.55-3.6,7.38-4.71,2.83-1.11,5.91-1.66,9.26-1.66s6.52.58,9.39,1.73c2.87,1.15,5.31,2.86,7.32,5.12l-4.08,3.96c-1.67-1.76-3.56-3.07-5.65-3.92s-4.33-1.29-6.72-1.29-4.76.42-6.88,1.26c-2.11.84-3.95,2.01-5.5,3.52-1.55,1.51-2.75,3.3-3.61,5.37-.86,2.07-1.29,4.32-1.29,6.75s.43,4.68,1.29,6.75c.86,2.07,2.06,3.86,3.61,5.37s3.38,2.68,5.5,3.52c2.11.84,4.41,1.26,6.88,1.26s4.62-.43,6.72-1.29c2.09-.86,3.98-2.19,5.65-3.99l4.08,3.96c-2.01,2.26-4.45,3.98-7.32,5.15-2.87,1.17-6.02,1.76-9.45,1.76Z"/>
        <path class="cls-1" d="M1319.87,693.4c-3.35,0-6.46-.56-9.33-1.7-2.87-1.13-5.35-2.71-7.44-4.74-2.09-2.03-3.73-4.41-4.9-7.13-1.17-2.72-1.76-5.69-1.76-8.92s.59-6.2,1.76-8.92c1.17-2.72,2.8-5.1,4.9-7.13,2.09-2.03,4.56-3.61,7.41-4.74,2.85-1.13,5.97-1.7,9.36-1.7s6.45.56,9.29,1.66c2.85,1.11,5.32,2.68,7.41,4.71,2.09,2.03,3.72,4.42,4.87,7.16,1.15,2.74,1.73,5.73,1.73,8.95s-.58,6.26-1.73,8.98-2.77,5.1-4.87,7.13c-2.09,2.03-4.56,3.6-7.41,4.71-2.85,1.11-5.95,1.66-9.29,1.66ZM1319.81,687.81c2.47,0,4.74-.42,6.81-1.26,2.07-.84,3.87-2.02,5.4-3.55s2.72-3.32,3.58-5.37c.86-2.05,1.29-4.29,1.29-6.72s-.43-4.66-1.29-6.69c-.86-2.03-2.05-3.82-3.58-5.37-1.53-1.55-3.33-2.74-5.4-3.58s-4.34-1.26-6.81-1.26-4.68.42-6.75,1.26-3.88,2.03-5.43,3.58c-1.55,1.55-2.75,3.34-3.61,5.37-.86,2.03-1.29,4.26-1.29,6.69s.43,4.67,1.29,6.72c.86,2.05,2.06,3.84,3.61,5.37s3.36,2.71,5.43,3.55c2.07.84,4.32,1.26,6.75,1.26Z"/>
        <path class="cls-1" d="M1364.96,692.9l19.91-43.96h6.22l19.97,43.96h-6.59l-17.77-40.44h2.51l-17.77,40.44h-6.47ZM1373.44,681.91l1.7-5.02h24.74l1.82,5.02h-28.26Z"/>
        <path class="cls-1" d="M1456.08,693.4c-3.35,0-6.44-.55-9.26-1.66-2.83-1.11-5.28-2.68-7.35-4.71-2.07-2.03-3.7-4.41-4.87-7.13s-1.76-5.71-1.76-8.98.59-6.26,1.76-8.98c1.17-2.72,2.8-5.1,4.9-7.13,2.09-2.03,4.55-3.6,7.38-4.71,2.83-1.11,5.91-1.66,9.26-1.66s6.52.58,9.39,1.73c2.87,1.15,5.31,2.86,7.32,5.12l-4.08,3.96c-1.67-1.76-3.56-3.07-5.65-3.92s-4.33-1.29-6.72-1.29-4.76.42-6.88,1.26c-2.11.84-3.95,2.01-5.5,3.52-1.55,1.51-2.75,3.3-3.61,5.37-.86,2.07-1.29,4.32-1.29,6.75s.43,4.68,1.29,6.75c.86,2.07,2.06,3.86,3.61,5.37s3.38,2.68,5.5,3.52c2.11.84,4.41,1.26,6.88,1.26s4.62-.43,6.72-1.29c2.09-.86,3.98-2.19,5.65-3.99l4.08,3.96c-2.01,2.26-4.45,3.98-7.32,5.15-2.87,1.17-6.02,1.76-9.45,1.76Z"/>
        <path class="cls-1" d="M1506.95,692.9h-6.28v-43.96h6.28v43.96ZM1532.76,673.3h-26.44v-5.46h26.44v5.46ZM1532.19,648.94h6.28v43.96h-6.28v-43.96Z"/>
        <path class="cls-1" d="M1571.07,693.27c-1.17,0-2.18-.41-3.01-1.22-.84-.82-1.26-1.85-1.26-3.11s.42-2.28,1.26-3.08c.84-.79,1.84-1.19,3.01-1.19s2.1.4,2.92,1.19c.82.8,1.22,1.82,1.22,3.08s-.41,2.29-1.22,3.11-1.79,1.22-2.92,1.22Z"/>
        <path class="cls-3" d="M1649.44,692.9l-14.69-43.96h6.47l13.5,40.57h-3.27l14-40.57h5.78l13.69,40.57h-3.14l13.69-40.57h5.97l-14.7,43.96h-6.59l-12.81-37.62h1.7l-12.87,37.62h-6.72Z"/>
        <path class="cls-3" d="M1728.88,692.9v-43.96h6.28v43.96h-6.28Z"/>
        <path class="cls-3" d="M1767.19,692.9v-43.96h5.15l29.08,36.11h-2.7v-36.11h6.28v43.96h-5.15l-29.08-36.11h2.7v36.11h-6.28Z"/>
        <path class="cls-3" d="M1837.58,693.27c-1.17,0-2.18-.41-3.01-1.22-.84-.82-1.26-1.85-1.26-3.11s.42-2.28,1.26-3.08c.84-.79,1.84-1.19,3.01-1.19s2.1.4,2.92,1.19c.82.8,1.22,1.82,1.22,3.08s-.41,2.29-1.22,3.11-1.79,1.22-2.92,1.22Z"/>
      </g>
    </g>
  </g>
</svg>