<?xml version="1.0" encoding="UTF-8"?>
<svg id="Capa_2" data-name="Capa 2" xmlns="http://www.w3.org/2000/svg" viewBox="0 0 670.89 670.89">
  <defs>
    <style>
      .cls-1 {
        fill: #3dc450;
      }

      .cls-2 {
        fill: #fff;
      }

      .cls-3 {
        fill: #0f0f0f;
      }
    </style>
  </defs>
  <g id="Capa_1" data-name="Capa 1">
    <g>
      <rect class="cls-3" width="670.89" height="670.89" rx="96.19" ry="96.19"/>
      <g>
        <ellipse class="cls-1" cx="334.76" cy="336.27" rx="54.89" ry="54.64" transform="translate(-135.7 397.96) rotate(-52.6)"/>
        <path class="cls-1" d="M172.97,542.4l65.62-65.6c.66-.67,1.56-1.05,2.51-1.05,106.01.16,168.24.13,186.71-.08,6.98-.09,13.34-2.28,19.09-6.57,3.19-2.38,6.75-8.12,10.7-17.21,8.02-18.44,25.3-56.95,51.84-115.52.27-.61.88-1.01,1.55-1.01h73c.44,0,.79.37.78.81,0,.1-.02.2-.06.3-26.56,59.62-51.45,114.44-74.67,164.45-10.53,22.67-29.84,36.07-53.98,41.16-5.13,1.07-12.63,1.62-22.49,1.63-95.4.09-182.07.11-260.02.06-.45,0-.81-.37-.81-.82,0-.21.08-.41.23-.56Z"/>
        <path class="cls-2" d="M497.92,128.49l-65.62,65.6c-.66.67-1.56,1.05-2.51,1.05-106.01-.16-168.24-.13-186.71.08-6.98.09-13.34,2.28-19.09,6.57-3.19,2.38-6.75,8.12-10.7,17.21-8.02,18.44-25.3,56.95-51.84,115.52-.27.61-.88,1.01-1.55,1.01h-73c-.44,0-.79-.37-.78-.81,0-.1.02-.2.06-.3,26.56-59.62,51.45-114.44,74.67-164.45,10.53-22.67,29.84-36.07,53.98-41.16,5.13-1.07,12.63-1.62,22.49-1.63,95.4-.09,182.07-.11,260.02-.06.45,0,.81.37.81.82,0,.21-.08.41-.23.56Z"/>
      </g>
    </g>
  </g>
</svg>