<?xml version="1.0" encoding="UTF-8"?>
<svg id="Capa_3" data-name="Capa 3" xmlns="http://www.w3.org/2000/svg" viewBox="0 0 2165.04 696.01">
  <defs>
    <style>
      .cls-1 {
        fill: #06121e;
      }

      .cls-2 {
        fill: #3dc450;
      }

      .cls-3 {
        fill: #fff;
        opacity: 0;
      }

      .cls-4 {
        fill: #0f0f0f;
      }
    </style>
  </defs>
  <g id="Capa_1" data-name="Capa 1">
    <g>
      <rect class="cls-3" width="2165.04" height="696.01"/>
      <g>
        <path class="cls-4" d="M1010.06,324.54c0-.31.25-.55.55-.55,26.28-.01,54.59-.01,84.92,0,17.35,0,31.72,2.66,37.3,19.73,2.62,7.98,1.6,17.33,1.75,26.7.26,17.71-7.2,30.23-25.59,34.02-.4.09-.66.48-.57.89.02.11.07.22.15.31l29.72,39.19s.01.09-.03.12c-.01,0-.02,0-.03.01h-24.67c-.46,0-.88-.2-1.15-.55l-28.48-37.57c-.74-.95-1.88-1.51-3.09-1.51h-47.92c-.8,0-1.45.64-1.45,1.43h0v36.93c0,.71-.56,1.28-1.26,1.28h-19.27c-.48,0-.87-.4-.87-.89v-119.51ZM1031.45,345.78l.21,38.91c0,.55.45,1,1,1h0l66.42-.36c7.88-.04,14.25-5.69,14.22-12.62l-.09-15.8c-.03-6.94-6.45-12.53-14.34-12.5,0,0,0,0-.01,0l-66.42.36c-.55,0-1,.45-1,1h0Z"/>
        <path class="cls-4" d="M1236.33,324.07c20.29-.1,40.3-.09,60.01.02.83,0,1.51.68,1.51,1.51h0v17.52c0,.83-.68,1.51-1.51,1.51h-47.07c-1.01,0-1.83.82-1.83,1.83h0l-.23,97.01c0,.73-.53,1.35-1.26,1.47-.09.01-3.3.02-9.64.02s-9.56,0-9.64-.02c-.72-.11-1.25-.74-1.26-1.47l-.19-97.01c0-1.01-.82-1.83-1.83-1.83h0l-47.07-.02c-.83,0-1.51-.68-1.51-1.51v-17.52c0-.83.68-1.51,1.51-1.51,19.71-.11,39.72-.11,60.01,0Z"/>
        <path class="cls-2" d="M1463.22,413.27c0,17.67-14.33,32-32,32h-68.55c-17.67,0-32-14.32-32-32h0v-57.31c0-17.67,14.33-32,32-32h68.55c17.67,0,32,14.32,32,32h0v57.31ZM1440.65,359.14c-.01-7.9-6.43-14.29-14.33-14.28l-59.31.1c-7.9.01-14.29,6.43-14.28,14.33h0s.09,50.45.09,50.45c.01,7.9,6.43,14.29,14.33,14.28h0l59.31-.1c7.9-.01,14.29-6.43,14.28-14.33h0s-.09-50.45-.09-50.45Z"/>
        <path class="cls-2" d="M1614.4,343.66c0,.59-.48,1.06-1.06,1.06-27.65.14-55.2.18-82.66.11-4.03-.01-6.71,1.8-8.03,5.43-1.4,3.85-1.55,12.24-1.09,15.82.87,6.49,8.13,7.54,14.03,7.43,12.3-.26,29.87-.25,52.69.02,15.86.19,28.99,7.49,30.85,24.08.47,4.1.63,9.93.49,17.48-.26,13.56-4.83,22.12-15.99,27.97-2.98,1.58-8.42,2.36-16.31,2.34-28.38-.06-56.46-.11-84.22-.15-1.03,0-1.87-.84-1.87-1.87,0-.01,0-.03,0-.04l.21-17.58c.01-.91.75-1.64,1.66-1.64,51.36-.07,80.04-.18,86.05-.34,5.44-.14,8.42-2.88,8.96-8.22.57-5.51.57-10.32,0-14.45-.41-2.88-2.37-5.31-5.11-6.3-3.28-1.18-6.86-1.66-10.75-1.45-10.2.58-27.4.62-51.58.13-10.13-.19-20.78-2.32-26.12-10.86-6.05-9.69-4.77-21.12-4.81-34.06,0-1.2.19-2.39.55-3.53,4.46-13.88,13.86-20.88,28.21-21.01,26.34-.21,54.72-.21,85.15.02.54,0,.98.43.98.96,0,0,0,.01,0,.02l-.23,18.65Z"/>
        <path class="cls-4" d="M509.45,384.55c.01,10.74,0,16.9-.06,18.48-.23,7.24.48,12.03,2.11,14.37,3.14,4.51,7.22,6.77,12.26,6.77,26.01.03,51.88.05,77.59.06.71,0,1.28.57,1.28,1.28l-.23,18.35c-.01.61-.51,1.11-1.13,1.11-28.03-.13-48.79-.09-62.29.13-22.18.36-39.94.7-48.86-19.24-4.3-9.64-2.51-28.7-2.53-41.26-.02-12.58-1.85-31.63,2.45-41.3,8.86-19.95,26.61-19.65,48.79-19.35,13.5.18,34.26.18,62.29-.02.61,0,1.12.49,1.13,1.11l.28,18.35c0,.71-.57,1.28-1.28,1.28-25.72.07-51.58.16-77.59.26-5.04.01-9.12,2.28-12.24,6.79-1.62,2.36-2.31,7.15-2.06,14.39.06,1.56.09,7.71.11,18.46Z"/>
        <path class="cls-4" d="M782.61,412.77c.03,17.72-14.31,32.11-32.02,32.14h0l-69.48.12c-17.72.03-32.11-14.31-32.14-32.02l-.1-56.71c-.03-17.72,14.31-32.11,32.02-32.14h0l69.48-.12c17.72-.03,32.11,14.31,32.14,32.02l.1,56.71ZM760.27,358.84c-.01-7.91-6.44-14.32-14.35-14.3h0l-60.8.11c-7.91.01-14.32,6.44-14.3,14.35h0l.09,50.71c.01,7.91,6.44,14.32,14.35,14.3h0l60.8-.11c7.91-.01,14.32-6.44,14.3-14.35h0l-.09-50.71Z"/>
        <path class="cls-4" d="M829.94,394.96l-.04-2.17-.06-67.12c0-.87.71-1.58,1.58-1.58h18.8c.91,0,1.64.72,1.64,1.62h0c0,1.62-.04,27.26-.11,76.93-.04,15.31,3.96,21.25,19.01,21.18,18.73-.09,34.08-.08,46.05.02,14.35.15,20.24-4.51,20.24-18.52-.06-51.02-.08-77.53-.06-79.53,0-.94.77-1.7,1.72-1.7h18.82c.82,0,1.49.67,1.49,1.49h0c-.17,41.54-.18,67.67-.04,78.4.14,10.53-.89,18.05-3.11,22.57-7.66,15.63-20.8,19.05-38.6,18.5-7.71-.23-20.9-.17-39.6.17-22.5.4-40.06-1.62-46.54-24.03-2.09-7.22-1.23-17.84-1.19-26.23Z"/>
        <path class="cls-1" d="M829.9,392.79l.04,2.17c.13-.79.11-1.52-.04-2.17Z"/>
      </g>
    </g>
  </g>
</svg>